<?xml version="1.0" ?><svg style="enable-background:new 0 0 48 48;" version="1.1" viewBox="0 0 48 48" xml:space="preserve" xmlns="http://www.w3.org/2000/svg" xmlns:xlink="http://www.w3.org/1999/xlink"><g id="Padding__x26__Artboard"/><g id="Icons"><path d="M25.53807,14.13533l0.79785-0.70068c0.23975-0.21094,0.38184-0.50684,0.3999-0.83105   c0.01855-0.32324-0.08838-0.63281-0.30029-0.87305c-0.43701-0.49219-1.19971-0.54297-1.7041-0.10938l-3.00684,2.66992   c-0.01709,0.01074-0.03271,0.02246-0.04639,0.03418c-0.26318,0.22168-0.41455,0.55273-0.41455,0.9082   c0,0.35938,0.14746,0.68164,0.40918,0.90234l3.0625,2.71191c0.23096,0.2002,0.51709,0.29785,0.80127,0.29785   c0.33398,0,0.66455-0.13574,0.90039-0.40137c0.20068-0.22852,0.30713-0.50586,0.30713-0.80078   c0-0.3457-0.14404-0.66504-0.40771-0.90234l-0.4621-0.41046c4.20233,0.90759,7.2796,4.81183,7.03534,9.2171   c-0.25049,4.53125-4.14355,8.30957-8.67871,8.42285c-2.41992,0.06348-4.72119-0.83984-6.45996-2.53613   c-1.73926-1.69629-2.69678-3.9668-2.69678-6.3916c0-2.27246,0.85547-4.43164,2.40967-6.0791   c0.42773-0.45508,0.4043-1.18945-0.05176-1.6377c-0.23633-0.23145-0.56445-0.33594-0.87793-0.3457   c-0.33398,0.00781-0.65674,0.15527-0.88477,0.40332c-2.33105,2.5332-3.37598,5.95215-2.86768,9.37988   c0.73535,4.96094,4.89551,8.9707,9.89111,9.53516c0.44629,0.05078,0.89014,0.0752,1.33008,0.0752   c2.78125,0,5.40967-0.99805,7.51318-2.87695c2.40723-2.15039,3.78809-5.23242,3.78809-8.4541   C35.32421,19.66347,31.08519,14.89442,25.53807,14.13533z" style="fill:#303030;"/></g></svg>