<?xml version="1.0" encoding="UTF-8" standalone="no"?>
<svg
   viewBox="0 0 32 32"
   version="1.1"
   id="svg1"
   sodipodi:docname="square_green.svg"
   inkscape:version="1.3.2 (091e20ef0f, 2023-11-25, custom)"
   xmlns:inkscape="http://www.inkscape.org/namespaces/inkscape"
   xmlns:sodipodi="http://sodipodi.sourceforge.net/DTD/sodipodi-0.dtd"
   xmlns="http://www.w3.org/2000/svg"
   xmlns:svg="http://www.w3.org/2000/svg">
  <defs
     id="defs1" />
  <sodipodi:namedview
     id="namedview1"
     pagecolor="#ffffff"
     bordercolor="#000000"
     borderopacity="0.25"
     inkscape:showpageshadow="2"
     inkscape:pageopacity="0.0"
     inkscape:pagecheckerboard="0"
     inkscape:deskcolor="#d1d1d1"
     inkscape:zoom="25.75"
     inkscape:cx="15.980583"
     inkscape:cy="16"
     inkscape:window-width="1920"
     inkscape:window-height="1024"
     inkscape:window-x="0"
     inkscape:window-y="0"
     inkscape:window-maximized="1"
     inkscape:current-layer="svg1">
    <sodipodi:guide
       position="25,4"
       orientation="0,-18"
       id="guide2"
       inkscape:locked="false" />
    <sodipodi:guide
       position="4,7"
       orientation="-18,0"
       id="guide3"
       inkscape:locked="false" />
    <sodipodi:guide
       position="7,28"
       orientation="0,18"
       id="guide4"
       inkscape:locked="false" />
    <sodipodi:guide
       position="28,25"
       orientation="18,0"
       id="guide5"
       inkscape:locked="false" />
    <sodipodi:guide
       position="6,25"
       orientation="18,0"
       id="guide6"
       inkscape:locked="false" />
    <sodipodi:guide
       position="7,6"
       orientation="0,18"
       id="guide7"
       inkscape:locked="false" />
    <sodipodi:guide
       position="26,7"
       orientation="-18,0"
       id="guide8"
       inkscape:locked="false" />
    <sodipodi:guide
       position="25,26"
       orientation="0,-18"
       id="guide9"
       inkscape:locked="false" />
  </sodipodi:namedview>
  <rect
     style="fill:#36cc37;stroke-linecap:round;stroke-linejoin:round;stroke-miterlimit:3.9;fill-opacity:1"
     id="rect9"
     width="20"
     height="20"
     x="6"
     y="6" />
  <g
     id="_192_zap-square"
     data-name="192 zap-square">
    <path
       d="M25,28H7a3,3,0,0,1-3-3V7A3,3,0,0,1,7,4H25a3,3,0,0,1,3,3V25A3,3,0,0,1,25,28ZM7,6A1,1,0,0,0,6,7V25a1,1,0,0,0,1,1H25a1,1,0,0,0,1-1V7a1,1,0,0,0-1-1Z"
       id="path1" />
  </g>
</svg>
